<svg xmlns="http://www.w3.org/2000/svg" width="1180" height="622" viewBox="0 0 1180 622" role="img" aria-labelledby="title desc">
  <title id="title">Four possible planet mobile arrangements</title>
  <desc id="desc">Four possible planet mobile arrangements</desc>
  <rect width="1180" height="622" fill="white"/>
  <style>
    text { font-family: Arial, Helvetica, sans-serif; fill: #23344d; }
    .label { font-size: 22px; font-weight: 700; }
    .small { font-size: 18px; }
    .symbol { font-size: 36px; font-weight: 700; text-anchor: middle; dominant-baseline: middle; }
    .card { fill: #f7f9fc; stroke: #8798ad; stroke-width: 2; }
    .tile { fill: white; stroke: #23344d; stroke-width: 2; }
  </style>
<rect x="60" y="18" width="510" height="282" rx="16" class="card"/>
<line x1="310" y1="64" x2="310" y2="104" stroke="#23344d" stroke-width="4"/>
<line x1="138" y1="104" x2="482" y2="104" stroke="#23344d" stroke-width="5"/>
<line x1="208" y1="104" x2="208" y2="147" stroke="#23344d" stroke-width="3"/>
<line x1="412" y1="104" x2="412" y2="147" stroke="#23344d" stroke-width="3"/>
<line x1="138" y1="147" x2="278" y2="147" stroke="#23344d" stroke-width="4"/>
<line x1="342" y1="147" x2="482" y2="147" stroke="#23344d" stroke-width="4"/>
<line x1="168" y1="147" x2="168" y2="168" stroke="#23344d" stroke-width="2"/>
<line x1="248" y1="147" x2="248" y2="168" stroke="#23344d" stroke-width="2"/>
<line x1="372" y1="147" x2="372" y2="168" stroke="#23344d" stroke-width="2"/>
<line x1="452" y1="147" x2="452" y2="168" stroke="#23344d" stroke-width="2"/>
<circle cx="168" cy="200" r="28" fill="#d8dde5" stroke="#23344d" stroke-width="2"/><circle cx="159" cy="195" r="5" fill="#aeb7c4"/><circle cx="177" cy="210" r="7" fill="#aeb7c4"/>
<text x="168" y="250" class="small" text-anchor="middle">Moon</text>
<circle cx="248" cy="200" r="28" fill="#cf674d" stroke="#23344d" stroke-width="2"/><circle cx="239" cy="193" r="5" fill="#a84737"/><circle cx="259" cy="209" r="7" fill="#a84737"/>
<text x="248" y="250" class="small" text-anchor="middle">Mars</text>
<circle cx="372" cy="200" r="28" fill="#4e9ee8" stroke="#23344d" stroke-width="2"/><path d="M352 195 q18 -20 32 -3 q-8 10 3 20 q-18 8 -35 -2" fill="#55a868" opacity=".95"/>
<text x="372" y="250" class="small" text-anchor="middle">Earth</text>
<ellipse cx="452" cy="200" rx="43" ry="11" fill="none" stroke="#b58b47" stroke-width="7"/><circle cx="452" cy="200" r="28" fill="#e6c47a" stroke="#23344d" stroke-width="2"/><ellipse cx="452" cy="200" rx="43" ry="11" fill="none" stroke="#b58b47" stroke-width="3"/>
<text x="452" y="250" class="small" text-anchor="middle">Saturn</text>
<rect x="610" y="18" width="510" height="282" rx="16" class="card"/>
<line x1="860" y1="64" x2="860" y2="104" stroke="#23344d" stroke-width="4"/>
<line x1="688" y1="104" x2="1032" y2="104" stroke="#23344d" stroke-width="5"/>
<line x1="758" y1="104" x2="758" y2="147" stroke="#23344d" stroke-width="3"/>
<line x1="962" y1="104" x2="962" y2="147" stroke="#23344d" stroke-width="3"/>
<line x1="688" y1="147" x2="828" y2="147" stroke="#23344d" stroke-width="4"/>
<line x1="892" y1="147" x2="1032" y2="147" stroke="#23344d" stroke-width="4"/>
<line x1="718" y1="147" x2="718" y2="168" stroke="#23344d" stroke-width="2"/>
<line x1="798" y1="147" x2="798" y2="168" stroke="#23344d" stroke-width="2"/>
<line x1="922" y1="147" x2="922" y2="168" stroke="#23344d" stroke-width="2"/>
<line x1="1002" y1="147" x2="1002" y2="168" stroke="#23344d" stroke-width="2"/>
<circle cx="718" cy="200" r="28" fill="#cf674d" stroke="#23344d" stroke-width="2"/><circle cx="709" cy="193" r="5" fill="#a84737"/><circle cx="729" cy="209" r="7" fill="#a84737"/>
<text x="718" y="250" class="small" text-anchor="middle">Mars</text>
<circle cx="798" cy="200" r="28" fill="#d8dde5" stroke="#23344d" stroke-width="2"/><circle cx="789" cy="195" r="5" fill="#aeb7c4"/><circle cx="807" cy="210" r="7" fill="#aeb7c4"/>
<text x="798" y="250" class="small" text-anchor="middle">Moon</text>
<circle cx="922" cy="200" r="28" fill="#4e9ee8" stroke="#23344d" stroke-width="2"/><path d="M902 195 q18 -20 32 -3 q-8 10 3 20 q-18 8 -35 -2" fill="#55a868" opacity=".95"/>
<text x="922" y="250" class="small" text-anchor="middle">Earth</text>
<ellipse cx="1002" cy="200" rx="43" ry="11" fill="none" stroke="#b58b47" stroke-width="7"/><circle cx="1002" cy="200" r="28" fill="#e6c47a" stroke="#23344d" stroke-width="2"/><ellipse cx="1002" cy="200" rx="43" ry="11" fill="none" stroke="#b58b47" stroke-width="3"/>
<text x="1002" y="250" class="small" text-anchor="middle">Saturn</text>
<rect x="60" y="320" width="510" height="282" rx="16" class="card"/>
<line x1="310" y1="366" x2="310" y2="406" stroke="#23344d" stroke-width="4"/>
<line x1="138" y1="406" x2="482" y2="406" stroke="#23344d" stroke-width="5"/>
<line x1="208" y1="406" x2="208" y2="449" stroke="#23344d" stroke-width="3"/>
<line x1="412" y1="406" x2="412" y2="449" stroke="#23344d" stroke-width="3"/>
<line x1="138" y1="449" x2="278" y2="449" stroke="#23344d" stroke-width="4"/>
<line x1="342" y1="449" x2="482" y2="449" stroke="#23344d" stroke-width="4"/>
<line x1="168" y1="449" x2="168" y2="470" stroke="#23344d" stroke-width="2"/>
<line x1="248" y1="449" x2="248" y2="470" stroke="#23344d" stroke-width="2"/>
<line x1="372" y1="449" x2="372" y2="470" stroke="#23344d" stroke-width="2"/>
<line x1="452" y1="449" x2="452" y2="470" stroke="#23344d" stroke-width="2"/>
<circle cx="168" cy="502" r="28" fill="#d8dde5" stroke="#23344d" stroke-width="2"/><circle cx="159" cy="497" r="5" fill="#aeb7c4"/><circle cx="177" cy="512" r="7" fill="#aeb7c4"/>
<text x="168" y="552" class="small" text-anchor="middle">Moon</text>
<circle cx="248" cy="502" r="28" fill="#cf674d" stroke="#23344d" stroke-width="2"/><circle cx="239" cy="495" r="5" fill="#a84737"/><circle cx="259" cy="511" r="7" fill="#a84737"/>
<text x="248" y="552" class="small" text-anchor="middle">Mars</text>
<ellipse cx="372" cy="502" rx="43" ry="11" fill="none" stroke="#b58b47" stroke-width="7"/><circle cx="372" cy="502" r="28" fill="#e6c47a" stroke="#23344d" stroke-width="2"/><ellipse cx="372" cy="502" rx="43" ry="11" fill="none" stroke="#b58b47" stroke-width="3"/>
<text x="372" y="552" class="small" text-anchor="middle">Saturn</text>
<circle cx="452" cy="502" r="28" fill="#4e9ee8" stroke="#23344d" stroke-width="2"/><path d="M432 497 q18 -20 32 -3 q-8 10 3 20 q-18 8 -35 -2" fill="#55a868" opacity=".95"/>
<text x="452" y="552" class="small" text-anchor="middle">Earth</text>
<rect x="610" y="320" width="510" height="282" rx="16" class="card"/>
<line x1="860" y1="366" x2="860" y2="406" stroke="#23344d" stroke-width="4"/>
<line x1="688" y1="406" x2="1032" y2="406" stroke="#23344d" stroke-width="5"/>
<line x1="758" y1="406" x2="758" y2="449" stroke="#23344d" stroke-width="3"/>
<line x1="962" y1="406" x2="962" y2="449" stroke="#23344d" stroke-width="3"/>
<line x1="688" y1="449" x2="828" y2="449" stroke="#23344d" stroke-width="4"/>
<line x1="892" y1="449" x2="1032" y2="449" stroke="#23344d" stroke-width="4"/>
<line x1="718" y1="449" x2="718" y2="470" stroke="#23344d" stroke-width="2"/>
<line x1="798" y1="449" x2="798" y2="470" stroke="#23344d" stroke-width="2"/>
<line x1="922" y1="449" x2="922" y2="470" stroke="#23344d" stroke-width="2"/>
<line x1="1002" y1="449" x2="1002" y2="470" stroke="#23344d" stroke-width="2"/>
<circle cx="718" cy="502" r="28" fill="#4e9ee8" stroke="#23344d" stroke-width="2"/><path d="M698 497 q18 -20 32 -3 q-8 10 3 20 q-18 8 -35 -2" fill="#55a868" opacity=".95"/>
<text x="718" y="552" class="small" text-anchor="middle">Earth</text>
<ellipse cx="798" cy="502" rx="43" ry="11" fill="none" stroke="#b58b47" stroke-width="7"/><circle cx="798" cy="502" r="28" fill="#e6c47a" stroke="#23344d" stroke-width="2"/><ellipse cx="798" cy="502" rx="43" ry="11" fill="none" stroke="#b58b47" stroke-width="3"/>
<text x="798" y="552" class="small" text-anchor="middle">Saturn</text>
<circle cx="922" cy="502" r="28" fill="#d8dde5" stroke="#23344d" stroke-width="2"/><circle cx="913" cy="497" r="5" fill="#aeb7c4"/><circle cx="931" cy="512" r="7" fill="#aeb7c4"/>
<text x="922" y="552" class="small" text-anchor="middle">Moon</text>
<circle cx="1002" cy="502" r="28" fill="#cf674d" stroke="#23344d" stroke-width="2"/><circle cx="993" cy="495" r="5" fill="#a84737"/><circle cx="1013" cy="511" r="7" fill="#a84737"/>
<text x="1002" y="552" class="small" text-anchor="middle">Mars</text>
</svg>
